<svg width="30" height="30" xmlns="http://www.w3.org/2000/svg"><defs><radialGradient cx="33.403%" cy="100%" fx="33.403%" fy="100%" r="103.891%" gradientTransform="rotate(-74.269 .356 .983) scale(1 .96679)" id="a"><stop stop-color="#FED87B" offset="0%"/><stop stop-color="#F9742C" offset="26.079%"/><stop stop-color="#CD286C" offset="50.321%"/><stop stop-color="#B12FA0" offset="73.519%"/><stop stop-color="#4C64D4" offset="100%"/></radialGradient></defs><g fill="none" fill-rule="evenodd"><rect fill="url(#a)" width="30" height="30" rx="4"/><path d="M19.126 5.625H10.77a5.152 5.152 0 0 0-5.146 5.146v8.355a5.152 5.152 0 0 0 5.146 5.146h8.355a5.152 5.152 0 0 0 5.146-5.146V10.77a5.152 5.152 0 0 0-5.146-5.146zm3.491 13.5a3.495 3.495 0 0 1-3.491 3.492H10.77a3.495 3.495 0 0 1-3.492-3.491V10.77a3.495 3.495 0 0 1 3.492-3.492h8.355a3.495 3.495 0 0 1 3.491 3.492v8.355z" fill="#FFF" fill-rule="nonzero"/><path d="M14.948 10.144a4.81 4.81 0 0 0-4.804 4.804 4.81 4.81 0 0 0 4.804 4.805 4.81 4.81 0 0 0 4.805-4.805 4.81 4.81 0 0 0-4.805-4.804zm0 7.954a3.154 3.154 0 0 1-3.15-3.15 3.154 3.154 0 0 1 3.15-3.15 3.154 3.154 0 0 1 3.15 3.15 3.154 3.154 0 0 1-3.15 3.15zm5.007-9.358a1.218 1.218 0 0 0-1.214 1.214 1.22 1.22 0 0 0 1.214 1.213c.32 0 .632-.13.858-.355a1.218 1.218 0 0 0 0-1.716 1.218 1.218 0 0 0-.858-.355z" fill="#FFF" fill-rule="nonzero"/></g></svg>