<svg width="30" height="30" xmlns="http://www.w3.org/2000/svg"><g fill="none" fill-rule="evenodd"><rect fill="#E4762F" width="30" height="30" rx="4"/><path d="M16.802 18.545a8.346 8.346 0 0 0 2.588-1.072 1.306 1.306 0 0 0-1.39-2.21 5.66 5.66 0 0 1-6 0 1.303 1.303 0 0 0-1.799.41c-.384.61-.2 1.416.408 1.8.797.5 1.671.862 2.588 1.072l-2.492 2.49a1.305 1.305 0 1 0 1.848 1.846l2.446-2.447 2.45 2.448c.508.51 1.333.51 1.842.001l.002-.001c.51-.508.511-1.334.003-1.842l-.003-.004-2.49-2.491M15 14.91a4.46 4.46 0 0 0 4.456-4.454A4.46 4.46 0 0 0 15 6a4.46 4.46 0 0 0-4.456 4.456A4.46 4.46 0 0 0 15 14.91m0-6.3c1.017 0 1.845.829 1.845 1.846A1.847 1.847 0 0 1 15 12.3a1.847 1.847 0 0 1-1.845-1.844c0-1.017.828-1.845 1.845-1.845" fill="#FFF"/></g></svg>