<svg width="98" height="20" xmlns="http://www.w3.org/2000/svg" xmlns:xlink="http://www.w3.org/1999/xlink"><defs><path id="a" d="M.002.101h6.432v14.702H.002z"/></defs><g fill="none" fill-rule="evenodd"><path d="M59.576 1.205h-1.213l-2.415 9.356a17.145 17.145 0 0 0-.408 2.157c-.03-.314-.072-.64-.125-.974-.058-.362-.147-.76-.264-1.183L52.808 1.23l-.005-.024h-1.19l-.681 15.219-.001.03h.913l.461-10.387c.03-.594.048-1.188.055-1.76.007-.59.01-1.063.01-1.447h.01c.058.526.13 1.014.217 1.452.088.444.19.904.307 1.367l2.168 8.35.006.021h.856l2.196-8.37a20.3 20.3 0 0 0 .318-1.434c.08-.438.155-.91.227-1.407h.01v1.413c0 .481.015 1.062.044 1.727l.46 10.447.001.029h1.067l-.68-15.22-.001-.03zm7.234 9.392v3.104a4.689 4.689 0 0 1-.836 1.522c-.35.416-.781.626-1.28.626-.529 0-.955-.217-1.268-.647-.317-.43-.477-1.045-.477-1.825 0-.968.226-1.68.67-2.118.446-.44 1.13-.662 2.038-.662h1.153zm1.09 4.94a10.052 10.052 0 0 1-.066-1.144v-6.01c0-1.096-.246-1.916-.731-2.436-.486-.522-1.193-.785-2.103-.785-.629 0-1.175.115-1.623.342-.448.227-.786.49-1.007.785l-.009.012.307 1.012.035-.05a2.7 2.7 0 0 1 .997-.875c.403-.21.84-.314 1.3-.314.6 0 1.058.19 1.357.567.3.379.453 1.002.453 1.851v1.347h-1.175c-1.2 0-2.127.308-2.758.915-.63.608-.95 1.515-.95 2.7 0 1.007.237 1.805.707 2.368.471.566 1.09.852 1.841.852.559 0 1.044-.157 1.442-.465.372-.29.69-.68.946-1.163a6.11 6.11 0 0 0 .255 1.388l.006.02h.963l-.015-.04c-.07-.198-.13-.494-.173-.877z" fill="#000"/><g transform="translate(70.225 5.061)"><mask id="b" fill="#fff"><use xlink:href="#a"/></mask><path d="M3.054 10.766c-.488 0-.895-.11-1.21-.322-.314-.215-.583-.548-.797-.989V3.217a6.11 6.11 0 0 1 .412-.831c.158-.266.338-.505.532-.705a2.64 2.64 0 0 1 .628-.488c.22-.12.456-.18.697-.18.642 0 1.153.405 1.518 1.206.369.808.556 1.952.556 3.397 0 1.75-.217 3.062-.643 3.9-.424.83-.993 1.25-1.693 1.25m2.61-9.152C5.415 1.138 5.103.763 4.736.5A2.084 2.084 0 0 0 3.491.101c-.618 0-1.14.212-1.554.63-.381.389-.697.83-.94 1.315L.915.348.914.318H.002v14.485h1.045v-4.117c.2.25.461.46.778.628.345.183.73.276 1.141.276 1.043 0 1.891-.508 2.522-1.51.629-1 .946-2.53.946-4.552 0-.798-.066-1.54-.197-2.201-.13-.663-.323-1.239-.572-1.713" fill="#000" mask="url(#b)"/></g><path fill="#000" d="M84.298 5.427l.033-.047h-1.037l-3.656 5.117V5.38h-1.044v11.075h1.044v-5.637l3.778 5.624.01.013h1.166l-3.918-5.93zm3.786.559c.27 0 .53.084.772.248.243.167.453.43.625.784.174.356.297.813.37 1.36.071.541.087 1.187.045 1.92h-3.993c.046-1.402.28-2.483.696-3.213.416-.729.916-1.1 1.485-1.1zm2.79 5.109c.087-.972.08-1.838-.022-2.575-.103-.735-.28-1.36-.529-1.856-.25-.498-.57-.877-.952-1.126a2.314 2.314 0 0 0-1.287-.376c-.47 0-.907.13-1.297.387-.389.256-.73.638-1.017 1.137-.285.495-.51 1.104-.671 1.81-.16.706-.242 1.52-.242 2.422 0 1.818.278 3.246.825 4.243.55 1.003 1.425 1.513 2.6 1.513.424 0 .807-.064 1.138-.188a3.04 3.04 0 0 0 .806-.43 2.87 2.87 0 0 0 .642-.618l.01-.013-.357-.878-.03.049a2.126 2.126 0 0 1-.542.583c-.186.156-.42.295-.693.41a2.45 2.45 0 0 1-.952.173c-.802 0-1.405-.4-1.791-1.185-.388-.789-.601-1.95-.632-3.455h4.99l.003-.027zm.882-5.715v.824h2.584v10.25h1.045V6.205h2.563V5.38zM22.75 15.063h-3.062c.286-.47.521-1.026.707-1.666.185-.642.335-1.321.45-2.04.114-.72.192-1.454.235-2.202.043-.747.064-1.456.064-2.126v-.213h1.606v8.247zm1.692-9.614h-4.796v.94c0 .67-.011 1.374-.033 2.115a21.81 21.81 0 0 1-.182 2.243 18.5 18.5 0 0 1-.438 2.244 9.398 9.398 0 0 1-.803 2.072h-.664v3.546h1.52v-2.322h4.9v2.322h1.352v-3.546h-.856V5.449zm6.551 4.486h-2.826c.028-.484.078-.933.15-1.346a4.88 4.88 0 0 1 .3-1.078c.128-.307.285-.546.47-.716a.914.914 0 0 1 .643-.257c.342 0 .62.232.835.695.214.462.35 1.115.407 1.955 0 .099.003.192.01.278.007.085.01.163.01.234v.235zm-1.2-4.764c-.599 0-1.113.174-1.541.524-.428.348-.781.811-1.06 1.387a7.704 7.704 0 0 0-.62 1.988 13.058 13.058 0 0 0-.204 2.34c0 1.68.335 2.984 1.007 3.909.67.926 1.563 1.39 2.676 1.39a4.48 4.48 0 0 0 1.466-.225c.436-.15.832-.325 1.189-.524l-.193-1.218a6.41 6.41 0 0 1-.824.268c-.35.092-.69.139-1.017.139-.871 0-1.51-.33-1.917-.993-.406-.662-.61-1.585-.61-2.767h4.604v-.946c0-1.737-.272-3.049-.814-3.939-.543-.89-1.256-1.333-2.141-1.333zm16.426 9.839a3.57 3.57 0 0 1-.964.139c-.828 0-1.442-.37-1.842-1.112-.4-.74-.599-1.76-.599-3.055 0-.555.043-1.1.129-1.634a7.202 7.202 0 0 1 .364-1.42c.157-.414.356-.748.6-1.006.241-.256.513-.384.813-.384.257 0 .51.079.76.236.25.156.474.349.674.576l.878-1.474a3.921 3.921 0 0 0-1.017-.513 3.971 3.971 0 0 0-1.274-.192c-.528 0-1.02.15-1.477.448-.457.3-.85.72-1.178 1.261-.328.542-.589 1.197-.781 1.966-.193.768-.29 1.624-.29 2.564 0 1.71.34 3.019 1.018 3.93.677.913 1.566 1.368 2.665 1.368a3.94 3.94 0 0 0 1.38-.225 6.305 6.305 0 0 0 1.104-.523l-.171-1.218c-.2.086-.464.175-.792.268"/><path d="M6.486 8.974h-.9a2.93 2.93 0 0 1-1.07-.201 2.473 2.473 0 0 1-.921-.649 3.319 3.319 0 0 1-.653-1.137c-.164-.46-.246-1.022-.246-1.688 0-.68.075-1.265.225-1.754.15-.487.349-.887.599-1.2.25-.31.535-.537.856-.679a2.44 2.44 0 0 1 .996-.213h1.114v7.52zM3.69.342a4.07 4.07 0 0 0-1.445 1.016c-.414.448-.742 1-.985 1.655-.242.655-.364 1.41-.364 2.264 0 1.111.218 2.07.653 2.874.436.805 1.16 1.45 2.174 1.935L0 16.287h1.948l3.424-5.925h1.114v5.925h1.69V0h-2.74a4.52 4.52 0 0 0-1.745.342z" fill="red"/><path fill="#000" d="M14.662 9.786h-2.436V5.449h-1.714v10.838h1.714V11.24h2.436v5.048h1.69V5.45h-1.69zM40.224 5.45h-1.82l-2.333 4.785-.193.214v-5h-1.713v11.003h1.713V10.79l.193.235 2.633 5.427h1.906l-3.083-6.047z"/></g></svg>