<svg width="30" height="30" xmlns="http://www.w3.org/2000/svg"><g fill="none" fill-rule="evenodd"><rect fill="#4C75A2" width="30" height="30" rx="4"/><path d="M20.19 14.903s2.25-3.174 2.473-4.218c.075-.372-.089-.581-.476-.581h-1.953c-.447 0-.61.194-.745.477 0 0-1.055 2.249-2.34 3.666-.412.459-.622.597-.85.597-.183 0-.268-.153-.268-.567v-3.622c0-.507-.06-.655-.477-.655h-3.13c-.238 0-.387.139-.387.327 0 .478.73.586.73 1.878v2.669c0 .536-.03.744-.283.744-.67 0-2.265-2.31-3.16-4.933-.179-.537-.372-.685-.88-.685h-1.95c-.283 0-.493.193-.493.477 0 .52.612 2.936 3.01 6.17C10.62 18.823 12.738 20 14.646 20c1.162 0 1.446-.193 1.446-.685v-1.67c0-.417.163-.596.402-.596.269 0 .742.087 1.848 1.178C19.653 19.48 19.743 20 20.458 20h2.19c.225 0 .433-.103.433-.476 0-.492-.64-1.371-1.625-2.415-.402-.536-1.058-1.118-1.266-1.387-.3-.312-.209-.49 0-.819" fill="#FFF"/></g></svg>